<svg width="20" height="20" viewBox="0 0 20 20" fill="currentColor" xmlns="http://www.w3.org/2000/svg"><path d="M11.7304 7.35195C11.9273 7.04193 12.3384 6.95002 12.6484 7.14687C12.9582 7.34374 13.0502 7.75487 12.8535 8.06484L9.67868 13.0648C9.56765 13.2397 9.38114 13.3525 9.17477 13.3705C8.96844 13.3885 8.76558 13.3096 8.62595 13.1566L6.80075 11.1566L6.7197 11.0482C6.56149 10.7827 6.60647 10.4337 6.84372 10.2172C7.08112 10.0007 7.43256 9.98823 7.68259 10.1703L7.78317 10.2601L9.02145 11.6166L11.7304 7.35195Z" data-rtl-flip=""></path><path d="M4.52148 15.1664C4.61337 14.8108 4.39951 14.4478 4.04395 14.3559C3.73281 14.2756 3.41605 14.4295 3.28027 14.7074L3.2334 14.8334C3.13026 15.2324 3.0046 15.6297 2.86133 16.0287L2.71289 16.4281C2.63179 16.6393 2.66312 16.8775 2.79688 17.06C2.93067 17.2424 3.14825 17.3443 3.37402 17.3305L3.7793 17.3002C4.62726 17.2265 5.44049 17.0856 6.23438 16.8764C6.84665 17.1788 7.50422 17.4101 8.19434 17.558C8.55329 17.6347 8.9064 17.4062 8.9834 17.0473C9.06036 16.6881 8.83177 16.3342 8.47266 16.2572C7.81451 16.1162 7.19288 15.8862 6.62305 15.5814C6.50913 15.5205 6.38084 15.4946 6.25391 15.5053L6.12793 15.5277C5.53715 15.6955 4.93256 15.819 4.30566 15.9027C4.33677 15.8052 4.36932 15.7081 4.39844 15.6098L4.52148 15.1664Z"></path><path d="M15.7998 14.5365C15.5786 14.3039 15.2291 14.2666 14.9668 14.4301L14.8604 14.5131C13.9651 15.3633 12.8166 15.9809 11.5273 16.2572C11.1682 16.3342 10.9396 16.6881 11.0166 17.0473C11.0936 17.4062 11.4467 17.6347 11.8057 17.558C13.2388 17.2509 14.5314 16.5858 15.5713 15.6644L15.7754 15.4769C16.0417 15.224 16.0527 14.8028 15.7998 14.5365Z"></path><path d="M2.23828 7.58925C1.97668 8.34846 1.83496 9.15956 1.83496 10.0004C1.835 10.7359 1.94324 11.4483 2.14551 12.1234L2.23828 12.4105C2.35793 12.7576 2.73588 12.9421 3.08301 12.8226C3.3867 12.718 3.56625 12.4153 3.52637 12.1088L3.49512 11.9769C3.2808 11.3548 3.16508 10.6908 3.16504 10.0004C3.16504 9.30975 3.28072 8.64512 3.49512 8.02284C3.61476 7.67561 3.43024 7.29679 3.08301 7.17714C2.73596 7.05777 2.35799 7.2423 2.23828 7.58925Z"></path><path d="M16.917 12.8226C17.2641 12.9421 17.6421 12.7576 17.7617 12.4105C18.0233 11.6515 18.165 10.8411 18.165 10.0004C18.165 9.15956 18.0233 8.34846 17.7617 7.58925C17.642 7.2423 17.264 7.05777 16.917 7.17714C16.5698 7.29679 16.3852 7.67561 16.5049 8.02284C16.7193 8.64512 16.835 9.30975 16.835 10.0004C16.8349 10.6908 16.7192 11.3548 16.5049 11.9769C16.3852 12.3242 16.5698 12.703 16.917 12.8226Z"></path><path d="M8.9834 2.95253C8.90632 2.59372 8.55322 2.36509 8.19434 2.44179C6.76126 2.74891 5.46855 3.41404 4.42871 4.33534L4.22461 4.52284C3.95829 4.77575 3.94729 5.19696 4.2002 5.46327C4.42146 5.69603 4.77088 5.73326 5.0332 5.56972L5.13965 5.48769C6.03496 4.63746 7.18337 4.01888 8.47266 3.74257C8.83177 3.66561 9.06036 3.31165 8.9834 2.95253Z"></path><path d="M15.5713 4.33534C14.5314 3.41404 13.2387 2.74891 11.8057 2.44179C11.4468 2.36509 11.0937 2.59372 11.0166 2.95253C10.9396 3.31165 11.1682 3.66561 11.5273 3.74257C12.7361 4.00161 13.8209 4.56094 14.6895 5.33046L14.8604 5.48769L14.9668 5.56972C15.2291 5.73326 15.5785 5.69603 15.7998 5.46327C16.0211 5.23025 16.0403 4.87902 15.8633 4.62538L15.7754 4.52284L15.5713 4.33534Z"></path></svg>