<svg width="20" height="20" viewBox="0 0 20 20" fill="currentColor" xmlns="http://www.w3.org/2000/svg"><path d="M10.4933 2.24145C10.6705 1.93631 11.0263 1.77698 11.3766 1.84591C12.9688 2.15921 13.9371 3.75763 13.4595 5.28453L12.7524 7.66797H14.0805C16.2694 7.66797 17.8591 9.71567 17.2831 11.7933L16.1515 15.7534C15.7576 17.1743 14.4458 18.16 12.9488 18.16L7.97157 18.16C7.0564 18.1583 6.31505 17.4278 6.31505 16.527V7.66797H6.93102C7.22884 7.66797 7.50382 7.38853 7.65157 7.13413L10.4933 2.24145Z"></path><path d="M4.98959 7.66797C3.61457 7.66797 2.66748 8.80749 2.66748 10.1603V15.7534C2.66748 17.1062 3.61457 18.16 4.98959 18.16H5.4337C5.15125 17.6796 4.98959 17.1219 4.98959 16.527V7.66797Z"></path></svg>