<svg width="20" height="20" viewBox="0 0 20 20" fill="currentColor" xmlns="http://www.w3.org/2000/svg"><path d="M9.50881 17.7486C9.33158 18.0537 8.97577 18.213 8.6255 18.1441C7.03327 17.8308 6.06502 16.2324 6.54255 14.7055L7.24966 12.322H5.92157C3.73272 12.322 2.14302 10.2743 2.71895 8.1967L3.85063 4.23665C4.2445 2.81575 5.55627 1.83 7.05325 1.83L12.0305 1.83C12.9457 1.83174 13.687 2.56219 13.687 3.463V12.322H13.0711C12.7732 12.322 12.4983 12.6015 12.3505 12.8559L9.50881 17.7486Z"></path><path d="M15.0125 12.322C16.3875 12.322 17.3346 11.1825 17.3346 9.8297V4.23665C17.3346 2.88384 16.3875 1.83 15.0125 1.83H14.5684C14.8508 2.31039 15.0125 2.86812 15.0125 3.463V12.322Z"></path></svg>